<svg width="13" height="13" viewBox="0 0 13 13" fill="none" xmlns="http://www.w3.org/2000/svg">
<path d="M11.1429 0.928532H10.6786V0.477303C10.6786 0.227458 10.4865 0.0130157 10.2366 0.000537987C10.1739 -0.00248661 10.1111 0.00726554 10.0522 0.0292036C9.99333 0.0511417 9.9395 0.0848089 9.894 0.128165C9.8485 0.171521 9.81228 0.223664 9.78752 0.281433C9.76277 0.339203 9.75001 0.401396 9.75 0.464245V0.928532H3.25V0.477303C3.25 0.227458 3.0579 0.0130157 2.80806 0.000537987C2.74528 -0.00248661 2.68255 0.00726554 2.62365 0.0292036C2.56475 0.0511417 2.51093 0.0848089 2.46543 0.128165C2.41993 0.171521 2.3837 0.223664 2.35895 0.281433C2.3342 0.339203 2.32143 0.401396 2.32143 0.464245V0.928532H1.85714C1.3646 0.928532 0.892226 1.1242 0.543945 1.47248C0.195663 1.82076 0 2.29313 0 2.78568V3.1339C0 3.16468 0.0122289 3.1942 0.0339966 3.21597C0.0557642 3.23774 0.0852874 3.24997 0.116071 3.24997H12.8839C12.9147 3.24997 12.9442 3.23774 12.966 3.21597C12.9878 3.1942 13 3.16468 13 3.1339V2.78568C13 2.29313 12.8043 1.82076 12.4561 1.47248C12.1078 1.1242 11.6354 0.928532 11.1429 0.928532ZM12.9129 4.17854H0.0870536C0.0639655 4.17854 0.0418232 4.18771 0.0254974 4.20404C0.00917173 4.22037 0 4.24251 0 4.2656V11.1429C0 11.6354 0.195663 12.1078 0.543945 12.4561C0.892226 12.8043 1.3646 13 1.85714 13H11.1429C11.6354 13 12.1078 12.8043 12.4561 12.4561C12.8043 12.1078 13 11.6354 13 11.1429V4.2656C13 4.24251 12.9908 4.22037 12.9745 4.20404C12.9582 4.18771 12.936 4.17854 12.9129 4.17854ZM5.57143 7.99237C5.57143 8.21225 5.48408 8.42312 5.32861 8.57859C5.17313 8.73407 4.96226 8.82141 4.74239 8.82141H2.68618C2.46631 8.82141 2.25544 8.73407 2.09996 8.57859C1.94449 8.42312 1.85714 8.21225 1.85714 7.99237V5.93616C1.85714 5.71628 1.94449 5.50541 2.09996 5.34994C2.25544 5.19446 2.46631 5.10712 2.68618 5.10712H4.74239C4.96226 5.10712 5.17313 5.19446 5.32861 5.34994C5.48408 5.50541 5.57143 5.71628 5.57143 5.93616V7.99237Z" fill="black"/>
</svg>
