<svg width="15" height="13" viewBox="0 0 15 13" fill="none" xmlns="http://www.w3.org/2000/svg">
<path d="M15 5.89286C15.0006 5.27764 14.8498 4.67173 14.5609 4.12855C14.272 3.58537 13.8539 3.12161 13.3435 2.77815C12.8331 2.4347 12.246 2.2221 11.634 2.1591C11.022 2.0961 10.4039 2.18464 9.83424 2.41691C9.26455 2.64917 8.76076 3.01804 8.36728 3.49097C7.9738 3.96391 7.70272 4.52639 7.57794 5.12882C7.45316 5.73125 7.47852 6.35513 7.65178 6.94545C7.82503 7.53577 8.14086 8.0744 8.57143 8.51384V12.3214C8.57136 12.4128 8.59466 12.5027 8.63912 12.5825C8.68357 12.6623 8.7477 12.7294 8.82541 12.7775C8.90312 12.8255 8.99182 12.8529 9.08309 12.857C9.17437 12.8611 9.26517 12.8418 9.34687 12.8009L11.25 11.8487L13.1531 12.8009C13.2348 12.8418 13.3256 12.8611 13.4169 12.857C13.5082 12.8529 13.5969 12.8255 13.6746 12.7775C13.7523 12.7294 13.8164 12.6623 13.8609 12.5825C13.9053 12.5027 13.9286 12.4128 13.9286 12.3214V8.51384C14.6157 7.81452 15.0005 6.87323 15 5.89286ZM11.25 3.21429C11.7798 3.21429 12.2976 3.37138 12.7381 3.66571C13.1786 3.96003 13.5219 4.37837 13.7247 4.86781C13.9274 5.35726 13.9805 5.89583 13.8771 6.41542C13.7737 6.93501 13.5186 7.41229 13.144 7.78689C12.7694 8.1615 12.2922 8.41661 11.7726 8.51996C11.253 8.62331 10.7144 8.57027 10.225 8.36753C9.73551 8.1648 9.31717 7.82148 9.02285 7.38099C8.72852 6.9405 8.57143 6.42263 8.57143 5.89286C8.57143 5.18246 8.85363 4.50115 9.35596 3.99882C9.85829 3.49649 10.5396 3.21429 11.25 3.21429ZM11.4897 10.7705C11.4153 10.7333 11.3332 10.7139 11.25 10.7139C11.1668 10.7139 11.0847 10.7333 11.0103 10.7705L9.64286 11.4549V9.28058C10.145 9.5191 10.694 9.64285 11.25 9.64285C11.806 9.64285 12.3549 9.5191 12.8571 9.28058V11.4549L11.4897 10.7705ZM7.5 10.1786C7.5 10.3207 7.44356 10.4569 7.34309 10.5574C7.24263 10.6578 7.10636 10.7143 6.96428 10.7143H1.07143C0.787268 10.7143 0.514746 10.6014 0.313814 10.4005C0.112882 10.1995 0 9.92702 0 9.64286V1.07143C0 0.787268 0.112882 0.514746 0.313814 0.313814C0.514746 0.112882 0.787268 0 1.07143 0H12.8571C13.1413 0 13.4138 0.112882 13.6148 0.313814C13.8157 0.514746 13.9286 0.787268 13.9286 1.07143C13.9286 1.21351 13.8721 1.34977 13.7717 1.45024C13.6712 1.5507 13.5349 1.60714 13.3929 1.60714C13.2508 1.60714 13.1145 1.5507 13.014 1.45024C12.9136 1.34977 12.8571 1.21351 12.8571 1.07143H1.07143V9.64286H6.96428C7.10636 9.64286 7.24263 9.6993 7.34309 9.79976C7.44356 9.90023 7.5 10.0365 7.5 10.1786ZM6.42857 6.42857C6.42857 6.57065 6.37213 6.70691 6.27166 6.80738C6.1712 6.90784 6.03494 6.96428 5.89286 6.96428H3.21429C3.07221 6.96428 2.93594 6.90784 2.83548 6.80738C2.73501 6.70691 2.67857 6.57065 2.67857 6.42857C2.67857 6.28649 2.73501 6.15023 2.83548 6.04976C2.93594 5.9493 3.07221 5.89286 3.21429 5.89286H5.89286C6.03494 5.89286 6.1712 5.9493 6.27166 6.04976C6.37213 6.15023 6.42857 6.28649 6.42857 6.42857ZM6.42857 4.28571C6.42857 4.42779 6.37213 4.56405 6.27166 4.66452C6.1712 4.76499 6.03494 4.82143 5.89286 4.82143H3.21429C3.07221 4.82143 2.93594 4.76499 2.83548 4.66452C2.73501 4.56405 2.67857 4.42779 2.67857 4.28571C2.67857 4.14363 2.73501 4.00737 2.83548 3.90691C2.93594 3.80644 3.07221 3.75 3.21429 3.75H5.89286C6.03494 3.75 6.1712 3.80644 6.27166 3.90691C6.37213 4.00737 6.42857 4.14363 6.42857 4.28571Z" fill="white"/>
</svg>
