<svg width="20" height="22" viewBox="0 0 33 35" fill="none" xmlns="http://www.w3.org/2000/svg">
<path d="M14.4375 25.1562H22.6875V27.3438H14.4375V25.1562ZM10.3125 25.1562H12.375V27.3438H10.3125V25.1562ZM14.4375 19.6875H22.6875V21.875H14.4375V19.6875ZM10.3125 19.6875H12.375V21.875H10.3125V19.6875ZM14.4375 14.2188H22.6875V16.4062H14.4375V14.2188ZM10.3125 14.2188H12.375V16.4062H10.3125V14.2188Z" fill="white"/>
<path d="M25.7812 5.46875H22.6875V4.375C22.6875 3.79484 22.4702 3.23844 22.0834 2.8282C21.6966 2.41797 21.172 2.1875 20.625 2.1875H12.375C11.828 2.1875 11.3034 2.41797 10.9166 2.8282C10.5298 3.23844 10.3125 3.79484 10.3125 4.375V5.46875H7.21875C6.67174 5.46875 6.14714 5.69922 5.76034 6.10945C5.37355 6.51969 5.15625 7.07609 5.15625 7.65625V30.625C5.15625 31.2052 5.37355 31.7616 5.76034 32.1718C6.14714 32.582 6.67174 32.8125 7.21875 32.8125H25.7812C26.3283 32.8125 26.8529 32.582 27.2397 32.1718C27.6265 31.7616 27.8438 31.2052 27.8438 30.625V7.65625C27.8438 7.07609 27.6265 6.51969 27.2397 6.10945C26.8529 5.69922 26.3283 5.46875 25.7812 5.46875ZM12.375 4.375H20.625V8.75H12.375V4.375ZM25.7812 30.625H7.21875V7.65625H10.3125V10.9375H22.6875V7.65625H25.7812V30.625Z" fill="white"/>
</svg>
