<svg width="20" height="22" viewBox="0 0 33 35" fill="none" xmlns="http://www.w3.org/2000/svg">
<path d="M4.12225 10.2085V1.4585H24.0625L28.875 6.56266V33.5418H20.625M22 1.4585V8.75016H28.875M6.1875 24.0627L11 18.9585L15.8125 24.0627M11 19.6877V29.1668M11 33.5418C13.5527 33.5418 16.0009 32.4663 17.8059 30.5519C19.6109 28.6374 20.625 26.0409 20.625 23.3335C20.625 20.6261 19.6109 18.0295 17.8059 16.1151C16.0009 14.2007 13.5527 13.1252 11 13.1252C8.44729 13.1252 5.99913 14.2007 4.1941 16.1151C2.38906 18.0295 1.375 20.6261 1.375 23.3335C1.375 26.0409 2.38906 28.6374 4.1941 30.5519C5.99913 32.4663 8.44729 33.5418 11 33.5418Z" stroke="white" stroke-width="2"/>
</svg>
