<svg width="24" height="12" viewBox="0 0 24 12" fill="none" xmlns="http://www.w3.org/2000/svg">
<path d="M0.691409 1.37109H22.7461C23.1328 1.37109 23.4492 1.06641 23.4492 0.679689C23.4492 0.304689 23.1328 0 22.7461 0H0.691409C0.304689 0 0 0.304689 0 0.679689C0 1.06641 0.304689 1.37109 0.691409 1.37109ZM0.691409 6.67969H22.7461C23.1328 6.67969 23.4492 6.375 23.4492 5.98828C23.4492 5.60156 23.1328 5.29688 22.7461 5.29688H0.691409C0.304689 5.29688 0 5.60156 0 5.98828C0 6.375 0.304689 6.67969 0.691409 6.67969ZM0.691409 11.9765H22.7461C23.1328 11.9765 23.4492 11.6719 23.4492 11.2851C23.4492 10.8984 23.1328 10.5937 22.7461 10.5937H0.691409C0.304689 10.5937 0 10.8984 0 11.2851C0 11.6719 0.304689 11.9765 0.691409 11.9765Z" fill="black"/>
</svg>
