<svg width="20" height="25" viewBox="0 0 33 27" fill="none" xmlns="http://www.w3.org/2000/svg">
<path fill-rule="evenodd" clip-rule="evenodd" d="M3.3 0C2.42479 0 1.58542 0.347677 0.966547 0.966547C0.347677 1.58542 0 2.42479 0 3.3V23.1C0 23.9752 0.347677 24.8146 0.966547 25.4335C1.58542 26.0523 2.42479 26.4 3.3 26.4H29.7C30.5752 26.4 31.4146 26.0523 32.0335 25.4335C32.6523 24.8146 33 23.9752 33 23.1V3.3C33 2.42479 32.6523 1.58542 32.0335 0.966547C31.4146 0.347677 30.5752 0 29.7 0H3.3ZM3.3 3.3H29.7V23.1H3.3V3.3ZM13.6125 9.4875C13.6125 10.2533 13.3083 10.9878 12.7668 11.5293C12.2253 12.0708 11.4908 12.375 10.725 12.375C9.95919 12.375 9.22474 12.0708 8.68323 11.5293C8.14172 10.9878 7.8375 10.2533 7.8375 9.4875C7.8375 8.72169 8.14172 7.98724 8.68323 7.44573C9.22474 6.90422 9.95919 6.6 10.725 6.6C11.4908 6.6 12.2253 6.90422 12.7668 7.44573C13.3083 7.98724 13.6125 8.72169 13.6125 9.4875ZM4.95 17.325C4.95 16.231 5.3846 15.1818 6.15818 14.4082C6.93177 13.6346 7.98098 13.2 9.075 13.2H12.375C12.9167 13.2 13.4531 13.3067 13.9536 13.514C14.454 13.7213 14.9088 14.0251 15.2918 14.4082C15.6749 14.7912 15.9787 15.246 16.186 15.7464C16.3933 16.2469 16.5 16.7833 16.5 17.325V18.15C16.5 18.5876 16.3262 19.0073 16.0167 19.3167C15.7073 19.6262 15.2876 19.8 14.85 19.8C14.4124 19.8 13.9927 19.6262 13.6833 19.3167C13.3738 19.0073 13.2 18.5876 13.2 18.15V17.325C13.2 17.1062 13.1131 16.8964 12.9584 16.7416C12.8036 16.5869 12.5938 16.5 12.375 16.5H9.075C8.8562 16.5 8.64635 16.5869 8.49164 16.7416C8.33692 16.8964 8.25 17.1062 8.25 17.325V18.15C8.25 18.5876 8.07616 19.0073 7.76673 19.3167C7.45729 19.6262 7.03761 19.8 6.6 19.8C6.16239 19.8 5.74271 19.6262 5.43327 19.3167C5.12384 19.0073 4.95 18.5876 4.95 18.15V17.325ZM18.15 11.55C18.15 11.1124 18.3238 10.6927 18.6333 10.3833C18.9427 10.0738 19.3624 9.9 19.8 9.9H23.1C23.5376 9.9 23.9573 10.0738 24.2667 10.3833C24.5762 10.6927 24.75 11.1124 24.75 11.55C24.75 11.9876 24.5762 12.4073 24.2667 12.7167C23.9573 13.0262 23.5376 13.2 23.1 13.2H19.8C19.3624 13.2 18.9427 13.0262 18.6333 12.7167C18.3238 12.4073 18.15 11.9876 18.15 11.55ZM19.8 14.85C19.3624 14.85 18.9427 15.0238 18.6333 15.3333C18.3238 15.6427 18.15 16.0624 18.15 16.5C18.15 16.9376 18.3238 17.3573 18.6333 17.6667C18.9427 17.9762 19.3624 18.15 19.8 18.15H26.4C26.8376 18.15 27.2573 17.9762 27.5667 17.6667C27.8762 17.3573 28.05 16.9376 28.05 16.5C28.05 16.0624 27.8762 15.6427 27.5667 15.3333C27.2573 15.0238 26.8376 14.85 26.4 14.85H19.8Z" fill="white"/>
</svg>
