<svg width="10" height="10" viewBox="0 0 10 10" fill="none" xmlns="http://www.w3.org/2000/svg">
<path opacity="0.5" d="M9.49725 5.00145C9.36468 5.00145 9.23754 5.05411 9.1438 5.14785C9.05005 5.24159 8.99739 5.36873 8.99739 5.5013V8.50043C8.99739 8.633 8.94473 8.76015 8.85099 8.85389C8.75725 8.94763 8.63011 9.00029 8.49754 9.00029H1.49957C1.367 9.00029 1.23986 8.94763 1.14611 8.85389C1.05237 8.76015 0.99971 8.633 0.99971 8.50043V1.50246C0.99971 1.36989 1.05237 1.24275 1.14611 1.14901C1.23986 1.05527 1.367 1.00261 1.49957 1.00261H4.4987C4.63127 1.00261 4.75841 0.949945 4.85215 0.856204C4.94589 0.762463 4.99855 0.635323 4.99855 0.502753C4.99855 0.370184 4.94589 0.243043 4.85215 0.149302C4.75841 0.0555615 4.63127 0.00289833 4.4987 0.00289833H1.49957C1.10186 0.00289833 0.720436 0.160888 0.439213 0.442111C0.15799 0.723334 0 1.10475 0 1.50246V8.50043C0 8.89814 0.15799 9.27956 0.439213 9.56079C0.720436 9.84201 1.10186 10 1.49957 10H8.49754C8.89525 10 9.27667 9.84201 9.55789 9.56079C9.83911 9.27956 9.9971 8.89814 9.9971 8.50043V5.5013C9.9971 5.36873 9.94444 5.24159 9.8507 5.14785C9.75696 5.05411 9.62982 5.00145 9.49725 5.00145ZM1.99942 5.38134V7.50072C1.99942 7.63329 2.05208 7.76043 2.14582 7.85418C2.23957 7.94792 2.36671 8.00058 2.49928 8.00058H4.61866C4.68444 8.00096 4.74966 7.98835 4.81056 7.96348C4.87146 7.9386 4.92685 7.90195 4.97356 7.85562L8.43256 4.39163L9.85214 3.00203C9.89899 2.95556 9.93618 2.90028 9.96156 2.83936C9.98693 2.77845 10 2.71312 10 2.64713C10 2.58114 9.98693 2.51581 9.96156 2.4549C9.93618 2.39399 9.89899 2.3387 9.85214 2.29223L7.73276 0.147856C7.68629 0.101006 7.63101 0.0638193 7.57009 0.0384423C7.50918 0.0130653 7.44385 0 7.37786 0C7.31187 0 7.24654 0.0130653 7.18563 0.0384423C7.12472 0.0638193 7.06943 0.101006 7.02296 0.147856L5.61337 1.56245L2.14438 5.02644C2.09805 5.07315 2.0614 5.12854 2.03652 5.18944C2.01165 5.25034 1.99904 5.31555 1.99942 5.38134ZM7.37786 1.20755L8.79245 2.62214L8.08266 3.33193L6.66807 1.91734L7.37786 1.20755ZM2.99913 5.58628L5.96327 2.62214L7.37786 4.03673L4.41372 7.00087H2.99913V5.58628Z" fill="black"/>
</svg>
