<svg width="11" height="11" viewBox="0 0 11 11" fill="none" xmlns="http://www.w3.org/2000/svg">
<path opacity="0.5" d="M10.1642 5.66356C10.0317 5.66356 9.90453 5.71622 9.81079 5.80996C9.71705 5.9037 9.66438 6.03084 9.66438 6.16341V9.16254C9.66438 9.29511 9.61172 9.42225 9.51798 9.516C9.42424 9.60974 9.2971 9.6624 9.16453 9.6624H2.16656C2.03399 9.6624 1.90685 9.60974 1.81311 9.516C1.71937 9.42225 1.6667 9.29511 1.6667 9.16254V2.16457C1.6667 2.032 1.71937 1.90486 1.81311 1.81112C1.90685 1.71738 2.03399 1.66472 2.16656 1.66472H5.16569C5.29826 1.66472 5.4254 1.61205 5.51914 1.51831C5.61288 1.42457 5.66554 1.29743 5.66554 1.16486C5.66554 1.03229 5.61288 0.905153 5.51914 0.811412C5.4254 0.717671 5.29826 0.665008 5.16569 0.665008H2.16656C1.76885 0.665008 1.38743 0.822997 1.1062 1.10422C0.824982 1.38544 0.666992 1.76686 0.666992 2.16457V9.16254C0.666992 9.56025 0.824982 9.94167 1.1062 10.2229C1.38743 10.5041 1.76885 10.6621 2.16656 10.6621H9.16453C9.56224 10.6621 9.94366 10.5041 10.2249 10.2229C10.5061 9.94167 10.6641 9.56025 10.6641 9.16254V6.16341C10.6641 6.03084 10.6114 5.9037 10.5177 5.80996C10.4239 5.71622 10.2968 5.66356 10.1642 5.66356ZM2.66641 6.04345V8.16283C2.66641 8.2954 2.71908 8.42254 2.81282 8.51628C2.90656 8.61003 3.0337 8.66269 3.16627 8.66269H5.28565C5.35144 8.66307 5.41665 8.65046 5.47755 8.62559C5.53845 8.60071 5.59384 8.56406 5.64055 8.51773L9.09955 5.05374L10.5191 3.66414C10.566 3.61767 10.6032 3.56239 10.6285 3.50147C10.6539 3.44056 10.667 3.37523 10.667 3.30924C10.667 3.24325 10.6539 3.17792 10.6285 3.11701C10.6032 3.0561 10.566 3.00081 10.5191 2.95434L8.39975 0.809966C8.35328 0.763115 8.298 0.725929 8.23709 0.700552C8.17617 0.675175 8.11084 0.662109 8.04485 0.662109C7.97887 0.662109 7.91353 0.675175 7.85262 0.700552C7.79171 0.725929 7.73642 0.763115 7.68996 0.809966L6.28036 2.22456L2.81137 5.68855C2.76504 5.73526 2.72839 5.79065 2.70352 5.85155C2.67864 5.91245 2.66603 5.97766 2.66641 6.04345ZM8.04485 1.86966L9.45944 3.28425L8.74965 3.99404L7.33506 2.57945L8.04485 1.86966ZM3.66612 6.24839L6.63026 3.28425L8.04485 4.69884L5.08071 7.66298H3.66612V6.24839Z" fill="black"/>
</svg>
