<svg width="33" height="25" viewBox="0 0 33 25" fill="none" xmlns="http://www.w3.org/2000/svg">
<path d="M21 0C19.4087 0 17.8826 0.637409 16.7574 1.772C15.6321 2.9066 15 4.44544 15 6.05C15 7.65456 15.6321 9.1934 16.7574 10.328C17.8826 11.4626 19.4087 12.1 21 12.1C22.5913 12.1 24.1174 11.4626 25.2426 10.328C26.3679 9.1934 27 7.65456 27 6.05C27 4.44544 26.3679 2.9066 25.2426 1.772C24.1174 0.637409 22.5913 0 21 0ZM21 2.87375C21.4137 2.87375 21.8233 2.95591 22.2055 3.11553C22.5876 3.27515 22.9349 3.50911 23.2274 3.80405C23.5199 4.09899 23.7519 4.44914 23.9102 4.8345C24.0685 5.21986 24.15 5.63289 24.15 6.05C24.15 6.46711 24.0685 6.88014 23.9102 7.2655C23.7519 7.65086 23.5199 8.00101 23.2274 8.29595C22.9349 8.59089 22.5876 8.82485 22.2055 8.98447C21.8233 9.14409 21.4137 9.22625 21 9.22625C20.5863 9.22625 20.1767 9.14409 19.7945 8.98447C19.4124 8.82485 19.0651 8.59089 18.7726 8.29595C18.4801 8.00101 18.2481 7.65086 18.0898 7.2655C17.9315 6.88014 17.85 6.46711 17.85 6.05C17.85 5.20761 18.1819 4.39971 18.7726 3.80405C19.3634 3.20839 20.1646 2.87375 21 2.87375ZM4.5 4.5375V9.075H0V12.1H4.5V16.6375H7.5V12.1H12V9.075H7.5V4.5375H4.5ZM21 13.6125C16.995 13.6125 9 15.6241 9 19.6625V24.2H33V19.6625C33 15.6241 25.005 13.6125 21 13.6125ZM21 16.4862C25.455 16.4862 30.15 18.6945 30.15 19.6625V21.3263H11.85V19.6625C11.85 18.6945 16.5 16.4862 21 16.4862Z" fill="#F90101"/>
</svg>
