<svg width="24" height="25" viewBox="0 0 24 25" fill="none" xmlns="http://www.w3.org/2000/svg">
<path d="M11.4625 12.3559C11.0063 12.7809 7.34961 16.3285 7.34961 16.3285L8.32578 17.291C8.32578 17.291 11.5746 14.2926 12.0625 13.8391C12.1832 13.7273 12.3875 13.5145 12.7652 13.5145H23.8453V11.9801H12.3801C12.0449 11.9805 11.7273 12.1121 11.4625 12.3559ZM18.027 4.01563C19.3262 4.01563 20.0352 3.11602 20.0352 2.00742C20.0351 1.61035 19.9173 1.22221 19.6966 0.892089C19.476 0.561966 19.1624 0.30468 18.7955 0.152762C18.4287 0.000843627 18.025 -0.0388848 17.6355 0.0385995C17.2461 0.116084 16.8884 0.307301 16.6076 0.588076C16.3268 0.86885 16.1356 1.22657 16.0581 1.61601C15.9806 2.00545 16.0204 2.40913 16.1723 2.77599C16.3242 3.14285 16.5815 3.45643 16.9116 3.67709C17.2417 3.89774 17.6299 4.01555 18.027 4.01563ZM15.0496 7.46641H15.723L14.7363 11.0113H21.3184L20.3309 7.46641H21.0043L22.0285 11.0113H23.7684L22.3699 6.30742C22.1852 5.65781 21.3637 4.50703 19.9414 4.50703H16.1125C14.691 4.50703 13.8703 5.65781 13.684 6.30742L12.2875 11.0113H14.0273L15.0496 7.46641ZM9.35664 10.8254L7.58906 7.52969C7.58906 7.52969 7.48516 7.37266 7.29258 7.46602C7.11953 7.54961 7.19766 7.74453 7.19766 7.74453L7.78398 8.86367L8.14883 9.56094L7.72813 9.37149C6.98281 9.03555 6.57188 8.89219 6.40703 8.81836C6.37773 8.80469 6.2332 8.72539 6.16445 8.57422C5.96914 8.1375 5.13516 6.02656 4.94805 5.55977C4.78984 5.16484 4.39961 4.60391 3.59766 4.40547C2.68477 4.17969 1.76445 4.75547 1.54727 5.67149L0.301562 10.9219C0.190625 11.3453 0 12.4906 0 12.9734L0.00820314 23.2289C0.0144531 24.0941 0.639062 24.7918 1.50352 24.7879C2.3668 24.7852 2.95781 24.0816 2.95508 23.2176L2.95312 14.5293L4.28164 8.92188C4.43672 9.30117 4.62891 9.76328 4.6918 9.87422C4.84141 10.1359 4.98906 10.316 5.29063 10.4578C5.29063 10.4578 7.0293 11.1773 7.70234 11.4844C7.89456 11.5578 8.10525 11.5678 8.30355 11.5128C8.50185 11.4579 8.67733 11.3408 8.8043 11.1789L8.89727 10.9863L8.9293 11.0477C8.9293 11.0477 9.12734 11.3965 9.41992 11.4125C9.50391 11.1465 9.35703 10.8254 9.35703 10.8254H9.35664ZM6.66914 1.99024C6.66914 2.25398 6.61719 2.51515 6.51626 2.75882C6.41533 3.00249 6.26739 3.22389 6.08089 3.41039C5.8944 3.59688 5.67299 3.74482 5.42932 3.84575C5.18565 3.94669 4.92449 3.99863 4.66074 3.99863C4.397 3.99863 4.13583 3.94669 3.89216 3.84575C3.64849 3.74482 3.42709 3.59688 3.24059 3.41039C3.05409 3.22389 2.90616 3.00249 2.80522 2.75882C2.70429 2.51515 2.65234 2.25398 2.65234 1.99024C2.6597 1.46243 2.87454 0.958729 3.25039 0.588086C3.62624 0.217444 4.13288 0.00965163 4.66074 0.00965163C5.1886 0.00965163 5.69525 0.217444 6.07109 0.588086C6.44694 0.958729 6.66178 1.46243 6.66914 1.99024Z" fill="black"/>
</svg>
